# xmcd
# 
# Track frame offsets:
#     182
#     16722
#     34580
#     48917
#     62110
#     78427
#     95000
#     106402
#     121387
#     135632
#     150567
#     164942
#     179705
# 
# Disc length: 2572
# 
# Revision: 6
# Processed by: cddbd v1.5.2PL0 Copyright (c) Steve Scherf et al.
# Submitted via: fre:ac v1.0.17
# 
DISCID=ac0a0a0d
DTITLE=Vaya Con Dios - Time Flies
DYEAR=1992
DGENRE=Blues
TTITLE0=Time Flies
TTITLE1=Forever Blue
TTITLE2=Farewell Song
TTITLE3=So Long Ago
TTITLE4=Still A Man
TTITLE5=Heading For A Fall
TTITLE6=Mothers And Daughters
TTITLE7=Listen
TTITLE8=Bold And Untrue
TTITLE9=Muddy Waters
TTITLE10=For You
TTITLE11=Brave Jane
TTITLE12=At The Parallel
EXTD=
EXTT0=
EXTT1=
EXTT2=
EXTT3=
EXTT4=
EXTT5=
EXTT6=
EXTT7=
EXTT8=
EXTT9=
EXTT10=
EXTT11=
EXTT12=
PLAYORDER=
